<svg width="20" height="21" viewBox="0 0 20 21" fill="none" xmlns="http://www.w3.org/2000/svg">
<path id="Vector" d="M10 21C11.5768 21 12.8558 19.8249 12.8558 18.375H7.14421C7.14421 19.8249 8.42322 21 10 21ZM19.6156 14.8596C18.7531 14.0081 17.1393 12.7271 17.1393 8.53125C17.1393 5.34434 14.7071 2.79316 11.4277 2.16727V1.3125C11.4277 0.587754 10.7884 0 10 0C9.21161 0 8.57233 0.587754 8.57233 1.3125V2.16727C5.29287 2.79316 2.86074 5.34434 2.86074 8.53125C2.86074 12.7271 1.2469 14.0081 0.384405 14.8596C0.116548 15.1241 -0.00220127 15.4403 3.08654e-05 15.75C0.00494156 16.4227 0.579493 17.0625 1.43306 17.0625H18.5669C19.4205 17.0625 19.9955 16.4227 20 15.75C20.0022 15.4403 19.8835 15.1237 19.6156 14.8596Z" fill="#028787"/>
</svg>
