<svg width="22" height="18" viewBox="0 0 22 18" fill="none" xmlns="http://www.w3.org/2000/svg">
<path id="Vector" d="M19.8002 5.96708e-08H7.05599C6.76703 -7.85453e-05 6.48089 0.0775039 6.21393 0.228313C5.94698 0.379121 5.70444 0.600199 5.50017 0.878906L0.322266 7.93922C-0.107422 8.52516 -0.107422 9.47484 0.322266 10.0603L5.50017 17.1211C5.91267 17.6836 6.4723 18 7.05564 18H19.8002C21.0153 18 22.0002 16.657 22.0002 15V3C22.0002 1.34297 21.0153 5.96708e-08 19.8002 5.96708e-08ZM16.889 11.9091C17.1038 12.202 17.1038 12.6769 16.889 12.9698L16.1114 14.0302C15.8965 14.3231 15.5483 14.3231 15.3335 14.0302L13.2002 11.1211L11.0669 14.0302C10.852 14.3231 10.5038 14.3231 10.289 14.0302L9.51139 12.9698C9.29655 12.6769 9.29655 12.202 9.51139 11.9091L11.6447 9L9.51139 6.09094C9.29655 5.79797 9.29655 5.32312 9.51139 5.03016L10.289 3.96984C10.5038 3.67688 10.852 3.67688 11.0669 3.96984L13.2002 6.87891L15.3335 3.96984C15.5483 3.67688 15.8965 3.67688 16.1114 3.96984L16.889 5.03016C17.1038 5.32312 17.1038 5.79797 16.889 6.09094L14.7556 9L16.889 11.9091Z" fill="#FF6060"/>
</svg>
